<svg xmlns="http://www.w3.org/2000/svg" height="511pt" version="1.1" viewBox="-90 0 511 511.99851" width="511pt">
<g id="surface1">
<path d="M 187.703125 372.109375 L 179.300781 362.203125 L 170.8125 381.472656 L 183.234375 394.222656 L 189.980469 373.4375 L 187.863281 372.226562 C 187.785156 372.183594 187.71875 372.128906 187.703125 372.109375 Z M 187.703125 372.109375 " style=" stroke:none;fill-rule:nonzero;fill:rgb(84.705882%,87.058824%,92.54902%);fill-opacity:1;" />
<path d="M 139.742188 378.703125 L 140.347656 380.21875 C 142.699219 386.066406 145.179688 392.015625 147.730469 397.910156 L 150.46875 404.246094 L 153.230469 397.921875 C 153.886719 396.421875 154.574219 394.9375 155.253906 393.472656 L 155.757812 392.386719 C 157.207031 389.292969 158.613281 386.269531 159.816406 383.28125 L 160.414062 381.792969 L 149.160156 365.339844 Z M 139.742188 378.703125 " style=" stroke:none;fill-rule:nonzero;fill:rgb(84.705882%,87.058824%,92.54902%);fill-opacity:1;" />
<path d="M 295.574219 371.261719 L 213.539062 309.789062 L 236.832031 368.984375 C 236.933594 369.242188 236.820312 369.539062 236.574219 369.660156 L 202.417969 386.578125 L 206.769531 389.453125 C 209.679688 391.375 211.832031 393.207031 213.535156 395.210938 C 217.300781 399.644531 218.695312 405.199219 217.179688 409.703125 C 215.59375 414.398438 211.519531 417.308594 206.75 420.363281 L 168.371094 444.882812 L 168.296875 444.917969 L 166.734375 445.828125 L 166.3125 505.769531 L 269.652344 504.0625 L 272.171875 433.246094 C 272.179688 432.957031 272.421875 432.726562 272.726562 432.726562 C 272.90625 432.734375 273.023438 432.824219 273.09375 432.898438 C 273.160156 432.96875 273.242188 433.097656 273.234375 433.285156 L 270.722656 504.050781 L 304.0625 503.5 C 310.1875 503.398438 316.484375 502.953125 320.269531 498.773438 C 323.34375 495.367188 323.855469 490.597656 324.167969 485.167969 L 326.867188 437.363281 C 327.546875 425.496094 328.316406 412.042969 323.148438 400.367188 C 317.5625 387.738281 305.886719 378.988281 295.574219 371.261719 Z M 295.574219 371.261719 " style=" stroke:none;fill-rule:nonzero;fill:rgb(15.686275%,56.078431%,78.823529%);fill-opacity:1;" />
<path d="M 100.023438 404.382812 C 99.792969 401.617188 101.359375 398.988281 102.519531 397.039062 L 115.296875 375.652344 L 110.335938 375.386719 C 109.492188 375.339844 108.632812 375.316406 107.785156 375.316406 C 101.707031 375.316406 95.585938 376.503906 90.070312 378.761719 C 90.011719 378.785156 89.949219 378.796875 89.882812 378.796875 C 89.75 378.796875 89.617188 378.746094 89.519531 378.652344 C 89.371094 378.515625 89.3125 378.296875 89.382812 378.09375 L 112.882812 307.296875 L 105.257812 312.949219 C 93.871094 321.390625 83.101562 330.167969 72.6875 338.65625 C 60.050781 348.96875 46.980469 359.636719 32.773438 369.714844 C 24.875 375.316406 15.925781 381.667969 10.925781 390.734375 C 5.4375 400.707031 5.308594 412.71875 5.195312 423.316406 L 4.585938 476.734375 C 4.476562 485.84375 4.863281 495.246094 10.738281 501.304688 C 16.375 507.132812 25.007812 507.9375 33.5 507.9375 C 34.449219 507.9375 35.398438 507.925781 36.34375 507.910156 L 48.394531 507.710938 L 51.902344 507.632812 L 51.898438 507.648438 L 165.242188 505.78125 L 165.6875 441.863281 L 108.632812 413.414062 C 105.964844 412.085938 100.417969 409.324219 100.023438 404.382812 Z M 52.355469 504.039062 C 52.355469 504.035156 52.351562 504.03125 52.351562 504.03125 C 52.351562 504.03125 51.933594 507.355469 51.933594 507.355469 L 51.28125 504.101562 L 51.382812 431.769531 C 51.382812 431.476562 51.621094 431.242188 51.921875 431.242188 C 52.097656 431.242188 52.21875 431.324219 52.289062 431.394531 C 52.359375 431.464844 52.445312 431.585938 52.441406 431.777344 Z M 52.355469 504.039062 " style=" stroke:none;fill-rule:nonzero;fill:rgb(15.686275%,56.078431%,78.823529%);fill-opacity:1;" />
<path d="M 200.835938 386.167969 L 235.65625 368.925781 L 212.042969 308.898438 L 168.316406 443.644531 L 206.167969 419.460938 C 210.585938 416.640625 214.675781 413.75 216.167969 409.359375 C 217.566406 405.210938 216.25 400.058594 212.726562 395.902344 C 209.5 392.121094 205.109375 389.589844 200.8125 387.109375 C 200.640625 387.011719 200.539062 386.828125 200.542969 386.632812 C 200.546875 386.433594 200.664062 386.253906 200.835938 386.167969 Z M 200.835938 386.167969 " style=" stroke:none;fill-rule:nonzero;fill:rgb(35.686275%,81.568627%,98.823529%);fill-opacity:1;" />
<path d="M 116.808594 316.171875 L 114.082031 307.0625 L 90.882812 376.96875 L 96.164062 375.664062 C 99.957031 374.722656 103.863281 374.246094 107.773438 374.246094 C 110.589844 374.246094 113.390625 374.496094 116.089844 374.992188 C 116.269531 375.023438 116.417969 375.136719 116.496094 375.304688 C 116.5625 375.457031 116.550781 375.636719 116.457031 375.792969 L 103.441406 397.582031 C 102.042969 399.910156 100.902344 402.023438 101.082031 404.289062 C 101.390625 408.113281 105.316406 410.5625 109.113281 412.453125 L 166.84375 441.230469 L 162.894531 433.242188 C 144.328125 395.683594 128.824219 356.296875 116.808594 316.171875 Z M 116.808594 316.171875 " style=" stroke:none;fill-rule:nonzero;fill:rgb(35.686275%,81.568627%,98.823529%);fill-opacity:1;" />
<path d="M 173.90625 340.085938 C 172.328125 340.621094 170.648438 341.050781 168.917969 341.371094 L 164.097656 342.261719 L 158.875 341.859375 C 152.351562 341.355469 145.867188 339.296875 140.117188 335.898438 C 135.027344 332.890625 130.402344 328.886719 126.378906 323.996094 L 121.203125 326.804688 C 126.058594 342.15625 131.449219 357.472656 137.230469 372.328125 L 139.253906 377.535156 L 163.980469 342.492188 L 190.046875 373.222656 L 208.199219 317.296875 L 202.914062 314.613281 C 195.53125 324.832031 186.3125 335.847656 173.90625 340.085938 Z M 173.90625 340.085938 " style=" stroke:none;fill-rule:nonzero;fill:rgb(100%,100%,100%);fill-opacity:1;" />
<path d="M 64.660156 166.292969 C 57.636719 180.628906 55.492188 197.398438 58.773438 212.289062 C 58.898438 212.875 59.023438 213.480469 59.152344 214.097656 L 59.421875 215.40625 C 61.222656 224.277344 63.460938 235.320312 73.59375 236.082031 C 74.105469 236.121094 74.613281 236.140625 75.117188 236.140625 C 84.066406 236.140625 91.800781 230.242188 96.84375 225.804688 C 116.636719 208.40625 129.796875 183.417969 132.941406 157.25 C 132.972656 157.003906 133.183594 156.800781 133.460938 156.78125 C 133.707031 156.78125 133.914062 156.929688 133.980469 157.171875 C 137.871094 170.667969 152.152344 180.464844 167.941406 180.464844 C 168.285156 180.464844 168.632812 180.460938 168.972656 180.449219 C 182.636719 180.089844 197.035156 172.785156 208.472656 160.410156 C 208.578125 160.300781 208.714844 160.238281 208.863281 160.238281 C 208.925781 160.238281 208.992188 160.25 209.070312 160.28125 C 209.277344 160.367188 209.410156 160.566406 209.40625 160.78125 C 208.96875 179.917969 215.179688 198.777344 226.894531 213.878906 C 232.734375 221.417969 238.59375 225.691406 244.796875 226.949219 C 246 227.195312 247.25 227.316406 248.515625 227.316406 C 255.738281 227.316406 263.007812 223.421875 267.492188 217.15625 C 272.226562 210.542969 274.089844 201.375 272.609375 192 C 271.402344 184.402344 268.109375 176.441406 262.539062 167.652344 C 247.195312 143.457031 222.636719 124.945312 195.164062 116.863281 C 184.402344 113.691406 173.109375 112.082031 161.59375 112.082031 C 144.050781 112.082031 126.558594 115.882812 111.011719 123.078125 C 90.023438 132.800781 73.5625 148.148438 64.660156 166.292969 Z M 64.660156 166.292969 " style=" stroke:none;fill-rule:nonzero;fill:rgb(68.627451%,47.45098%,47.45098%);fill-opacity:1;" />
<path d="M 268.933594 220.78125 L 266.972656 219.667969 L 265.359375 221.242188 C 260.710938 225.78125 254.589844 228.382812 248.566406 228.382812 C 247.214844 228.382812 245.878906 228.25 244.589844 227.988281 C 238.121094 226.679688 232.054688 222.277344 226.046875 214.535156 C 215.800781 201.304688 209.746094 185.472656 208.539062 168.746094 L 208.101562 162.71875 L 203.5625 166.707031 C 192.894531 176.089844 180.941406 181.210938 169 181.519531 C 168.683594 181.527344 168.367188 181.53125 168.050781 181.53125 C 156.035156 181.53125 144.351562 175.832031 137.554688 166.65625 L 133.644531 161.375 L 132.214844 167.789062 C 127.15625 190.515625 114.84375 211.402344 97.554688 226.609375 C 92.375 231.160156 84.417969 237.210938 75.132812 237.210938 C 74.554688 237.210938 74.035156 237.191406 73.523438 237.148438 C 70.414062 236.914062 67.890625 235.839844 65.804688 233.871094 L 64.71875 232.84375 L 63.246094 233.09375 C 55.636719 234.371094 48.996094 240.402344 47.101562 247.75 C 45.0625 255.628906 48.664062 264.921875 55.472656 269.359375 C 58.570312 271.382812 62.300781 272.457031 66.269531 272.457031 C 70.878906 272.457031 75.273438 270.992188 78.628906 268.347656 C 78.722656 268.273438 78.84375 268.230469 78.957031 268.230469 L 79.070312 268.242188 C 79.226562 268.273438 79.355469 268.371094 79.433594 268.507812 C 95.890625 297.644531 129.539062 317.21875 163.15625 317.21875 C 164.011719 317.21875 164.875 317.203125 165.734375 317.179688 C 200.332031 316.148438 233.792969 294.5625 249 263.464844 C 249.109375 263.246094 249.320312 263.167969 249.484375 263.167969 C 249.542969 263.167969 249.601562 263.175781 249.65625 263.195312 C 251.945312 264.015625 254.390625 264.429688 256.921875 264.429688 C 266.339844 264.429688 275.410156 258.695312 278.976562 250.484375 C 283.503906 240.039062 278.90625 226.4375 268.933594 220.78125 Z M 268.933594 220.78125 " style=" stroke:none;fill-rule:nonzero;fill:rgb(100%,82.352941%,73.333333%);fill-opacity:1;" />
<path d="M 140.660156 334.984375 C 147.253906 338.878906 154.636719 340.9375 162.011719 340.9375 C 166.046875 340.9375 169.925781 340.3125 173.546875 339.078125 C 185.050781 335.140625 193.144531 325.898438 200.175781 316.496094 L 206.414062 308.15625 L 196.695312 311.902344 C 186.566406 315.800781 176.160156 317.9375 165.757812 318.242188 C 164.886719 318.269531 164.011719 318.28125 163.144531 318.28125 C 150.398438 318.28125 137.171875 315.460938 124.902344 310.128906 L 116.707031 306.570312 L 121.089844 314.351562 C 126.164062 323.363281 132.746094 330.304688 140.660156 334.984375 Z M 140.660156 334.984375 " style=" stroke:none;fill-rule:nonzero;fill:rgb(100%,82.352941%,73.333333%);fill-opacity:1;" />
<path d="M 235.308594 136.332031 L 240.234375 140.148438 L 239.890625 116.71875 L 239.886719 116.71875 L 239.511719 90.367188 C 239.445312 85.566406 239.199219 81.316406 236.863281 77.988281 C 234.398438 74.503906 230.0625 72.816406 226.195312 71.507812 C 208.066406 65.359375 188.976562 62.242188 169.457031 62.242188 C 143.957031 62.242188 118.460938 67.726562 95.726562 78.097656 C 90.550781 80.460938 85.511719 83.328125 83.6875 88.292969 C 82.617188 91.191406 82.847656 94.476562 83.046875 97.371094 L 84.652344 121.132812 L 84.65625 121.128906 L 85.773438 137.714844 L 90.207031 134.335938 C 96.457031 129.578125 103.304688 125.460938 110.5625 122.101562 C 126.230469 114.851562 143.882812 111.015625 161.613281 111.015625 C 173.222656 111.015625 184.613281 112.636719 195.460938 115.828125 C 209.566406 119.984375 223.34375 127.078125 235.308594 136.332031 Z M 235.308594 136.332031 " style=" stroke:none;fill-rule:nonzero;fill:rgb(92.941176%,42.745098%,40%);fill-opacity:1;" />
<path d="M 151.9375 407.519531 L 154.535156 413.199219 C 157.769531 420.273438 161.203125 427.457031 164.738281 434.554688 L 168.011719 441.132812 L 174.488281 421.15625 L 179.699219 405.113281 L 179.703125 405.117188 L 182.855469 395.371094 L 169.757812 381.933594 C 169.796875 381.96875 169.832031 382.007812 169.835938 382.011719 L 169.121094 381.113281 L 169.828125 381.058594 L 178.527344 361.300781 L 171.332031 352.824219 L 164.058594 344.230469 L 149.820312 364.402344 L 156.382812 374 L 156.378906 374 L 161.585938 381.617188 L 161.113281 382.835938 C 160.296875 384.953125 159.308594 387.257812 158.007812 390.097656 L 157.65625 390.859375 L 157.652344 390.855469 L 156.304688 393.753906 C 154.734375 397.121094 153.226562 400.417969 152.03125 403.65625 C 152.019531 403.679688 152 403.726562 151.953125 403.796875 L 151.246094 404.808594 L 150.488281 404.347656 L 150.914062 405.285156 L 150.125 406.421875 Z M 151.9375 407.519531 " style=" stroke:none;fill-rule:nonzero;fill:rgb(92.941176%,42.745098%,40%);fill-opacity:1;" />
<path d="M 158.707031 3.976562 L 158.378906 4.125 L 156.597656 3.308594 L 156.863281 4.808594 L 12.265625 70.105469 L 22.890625 77.058594 L 22.894531 77.058594 L 83.285156 116.644531 L 81.988281 97.441406 C 81.789062 94.589844 81.539062 91.042969 82.691406 87.917969 C 84.65625 82.574219 90.160156 79.464844 95.28125 77.128906 C 118.152344 66.695312 143.804688 61.179688 169.46875 61.179688 C 189.113281 61.179688 208.3125 64.316406 226.542969 70.5 C 230.582031 71.871094 235.113281 73.648438 237.742188 77.378906 C 240.457031 81.226562 240.527344 86.28125 240.585938 90.351562 L 240.949219 115.675781 L 245.101562 113.832031 C 257.253906 108.4375 269.085938 103.085938 280.527344 97.910156 L 283.066406 96.761719 C 288.8125 94.152344 294.660156 91.515625 300.578125 88.84375 L 304.847656 86.917969 L 306.46875 86.191406 C 309.757812 84.714844 313.0625 83.234375 316.398438 81.738281 L 322.457031 79.03125 L 158.761719 4.300781 Z M 158.707031 3.976562 " style=" stroke:none;fill-rule:nonzero;fill:rgb(92.941176%,42.745098%,40%);fill-opacity:1;" />
<path d="M 21.449219 167.382812 C 22.121094 167.382812 22.902344 167.328125 23.832031 167.207031 L 25.382812 167 L 25.382812 167.003906 L 33.40625 165.964844 L 33.40625 165.96875 L 43.039062 164.730469 L 43.050781 162.105469 C 43.113281 149.171875 42.382812 132.957031 36.15625 122.234375 C 34.566406 119.496094 32.847656 117.914062 30.914062 117.402344 C 30.46875 117.285156 30 117.222656 29.519531 117.222656 C 28.214844 117.222656 26.855469 117.648438 25.351562 118.519531 C 19.515625 121.917969 18.628906 129.894531 18.152344 134.175781 C 17.132812 143.199219 16.660156 152.445312 16.742188 161.652344 C 16.757812 163.730469 16.945312 165.132812 17.867188 166.144531 C 18.886719 167.257812 20.398438 167.382812 21.449219 167.382812 Z M 21.449219 167.382812 " style=" stroke:none;fill-rule:nonzero;fill:rgb(97.647059%,84.705882%,53.72549%);fill-opacity:1;" />
<path d="M 326.871094 398.722656 C 320.84375 385.109375 308.183594 375.621094 298.011719 368 L 215.699219 306.324219 C 215.566406 306.222656 215.421875 306.148438 215.277344 306.070312 C 215.269531 306.046875 215.253906 306.027344 215.242188 306.003906 C 230.316406 296.660156 243.039062 283.507812 251.308594 267.898438 C 263.722656 270.632812 277.574219 263.90625 282.699219 252.109375 C 287.96875 239.984375 283.03125 224.785156 271.933594 217.816406 C 276.441406 210.527344 278.152344 201.011719 276.625 191.359375 C 275.332031 183.214844 271.847656 174.746094 265.96875 165.46875 C 259.960938 155.996094 252.585938 147.367188 244.199219 139.84375 C 244.253906 139.589844 244.285156 139.332031 244.28125 139.0625 L 243.992188 118.753906 C 244.066406 118.726562 244.144531 118.714844 244.21875 118.679688 C 258.1875 112.488281 271.6875 106.375 284.742188 100.464844 C 297.78125 94.558594 311.269531 88.453125 325.210938 82.273438 C 326.480469 81.710938 327.304688 80.453125 327.3125 79.0625 C 327.320312 77.667969 326.511719 76.402344 325.246094 75.828125 L 159.847656 0.320312 C 158.921875 -0.105469 157.855469 -0.105469 156.925781 0.3125 L 9.710938 66.792969 C 8.535156 67.324219 7.742188 68.453125 7.640625 69.742188 C 7.539062 71.027344 8.148438 72.265625 9.226562 72.972656 L 22.855469 81.90625 C 22.691406 82.339844 22.605469 82.816406 22.625 83.3125 L 23.988281 114.636719 C 23.757812 114.757812 23.53125 114.871094 23.300781 115.003906 C 15.710938 119.425781 14.667969 128.726562 14.109375 133.722656 C 13.070312 142.972656 12.585938 152.382812 12.671875 161.691406 C 12.691406 163.390625 12.71875 166.558594 14.882812 168.910156 C 16.796875 170.992188 19.429688 171.453125 21.570312 171.453125 C 22.691406 171.453125 23.675781 171.328125 24.351562 171.242188 L 44.019531 168.703125 C 45.769531 168.472656 47.085938 166.992188 47.101562 165.226562 C 47.246094 148.734375 46.449219 131.863281 39.683594 120.191406 C 37.558594 116.527344 34.957031 114.261719 31.957031 113.46875 C 31.640625 113.386719 31.324219 113.324219 31.003906 113.273438 L 29.839844 86.480469 L 80.480469 119.667969 L 81.6875 137.515625 C 72.949219 145.414062 65.894531 154.542969 61.011719 164.5 C 53.472656 179.871094 51.265625 197.15625 54.796875 213.167969 C 55.007812 214.140625 55.21875 215.164062 55.429688 216.214844 C 56.269531 220.34375 57.308594 225.429688 59.410156 229.851562 C 51.660156 232.320312 45.203125 238.804688 43.15625 246.730469 C 40.664062 256.375 44.910156 267.324219 53.25 272.769531 C 60.464844 277.480469 70.222656 277.730469 77.792969 273.71875 C 85.632812 286.371094 96.503906 297.078125 109.101562 305.113281 C 95.339844 314.941406 82.519531 325.386719 70.117188 335.503906 C 57.480469 345.8125 44.414062 356.46875 30.433594 366.382812 C 22.175781 372.242188 12.816406 378.875 7.367188 388.773438 C 1.390625 399.621094 1.242188 412.734375 1.121094 423.265625 L 0.511719 476.691406 C 0.398438 486.648438 0.867188 496.964844 7.8125 504.132812 C 14.464844 511 24.40625 512 33.679688 512 C 34.597656 512 35.511719 511.988281 36.414062 511.972656 L 269.933594 508.132812 C 269.96875 508.132812 270.003906 508.148438 270.042969 508.148438 C 270.085938 508.148438 270.128906 508.148438 270.171875 508.148438 C 270.257812 508.148438 270.34375 508.128906 270.429688 508.125 L 304.128906 507.570312 C 310.835938 507.460938 318.398438 506.890625 323.28125 501.5 C 327.257812 497.109375 327.890625 491.378906 328.230469 485.398438 L 330.9375 437.589844 C 331.632812 425.257812 332.425781 411.277344 326.871094 398.722656 Z M 231.855469 367.457031 L 199.507812 383.476562 C 198.339844 384.058594 197.585938 385.234375 197.542969 386.535156 C 197.503906 387.839844 198.183594 389.058594 199.3125 389.710938 C 203.359375 392.039062 207.542969 394.449219 210.441406 397.855469 C 213.242188 401.148438 214.371094 405.289062 213.320312 408.402344 C 212.160156 411.851562 208.664062 414.304688 204.554688 416.929688 L 173.753906 436.609375 L 212.316406 317.78125 Z M 172.210938 359.21875 C 173.199219 360.601562 173.894531 362.066406 173.675781 363.96875 C 173.320312 367.105469 171.261719 370.351562 170 373.210938 C 169.792969 373.683594 168.28125 378.15625 167.800781 378.207031 L 163.148438 378.578125 C 161.730469 376.507812 160.089844 374.640625 158.648438 372.613281 C 158.097656 371.835938 153.300781 364.683594 153.476562 364.429688 C 157.054688 359.359375 161.007812 354.367188 164.253906 349.109375 C 166.527344 351.777344 168.535156 354.625 170.742188 357.34375 C 171.253906 357.972656 171.761719 358.589844 172.210938 359.21875 Z M 172.578125 336.238281 C 163.097656 339.472656 151.738281 338.035156 142.183594 332.398438 C 133.320312 327.164062 127.453125 319.542969 123.707031 312.878906 C 136.148438 318.292969 149.617188 321.285156 163.140625 321.285156 C 164.042969 321.285156 164.949219 321.269531 165.855469 321.242188 C 176.765625 320.917969 187.570312 318.632812 197.769531 314.703125 C 190.320312 324.660156 182.742188 332.765625 172.578125 336.238281 Z M 205.34375 316.367188 L 188.855469 367.175781 L 169.460938 344.324219 C 171.300781 343.984375 173.109375 343.527344 174.863281 342.925781 C 188.445312 338.285156 198.082031 326.421875 205.34375 316.367188 Z M 138.589844 338.484375 C 144.835938 342.167969 151.765625 344.316406 158.640625 344.851562 L 140.023438 371.238281 C 134.214844 356.296875 128.894531 341.167969 124.066406 325.902344 C 128.285156 331.03125 133.167969 335.285156 138.589844 338.484375 Z M 149.128906 370.59375 L 157.03125 382.15625 C 155.835938 385.140625 154.421875 388.167969 153.046875 391.113281 C 152.191406 392.953125 151.316406 394.824219 150.480469 396.714844 C 147.957031 390.875 145.503906 385.003906 143.128906 379.097656 Z M 180.109375 367.800781 L 185.410156 374.046875 C 185.691406 374.375 186.019531 374.625 186.371094 374.824219 L 181.910156 388.570312 L 174.367188 380.832031 Z M 315.175781 79 C 311.480469 80.648438 307.832031 82.285156 304.203125 83.917969 L 162.132812 17.441406 C 162.128906 17.414062 162.132812 17.386719 162.125 17.363281 L 160.539062 8.40625 Z M 23.199219 73.675781 L 18.484375 70.585938 L 156.417969 8.300781 L 158.050781 17.511719 Z M 30.144531 120.304688 C 31.542969 120.675781 32.777344 122.375 33.566406 123.738281 C 37.988281 131.359375 39.164062 140.695312 39.730469 149.335938 C 39.871094 151.523438 39.957031 153.707031 40.007812 155.898438 C 40.046875 157.636719 40.511719 160.121094 40.058594 161.800781 C 39.535156 163.734375 37.3125 162.949219 35.46875 163.128906 C 32.664062 163.40625 29.863281 163.699219 27.0625 163.980469 C 25.84375 164.105469 21.101562 165.242188 20.085938 164.125 C 19.871094 163.890625 19.757812 163.050781 19.746094 161.625 C 19.660156 152.601562 20.128906 143.480469 21.132812 134.515625 C 21.71875 129.304688 22.691406 123.542969 26.859375 121.117188 C 28.175781 120.347656 29.28125 120.074219 30.144531 120.304688 Z M 79.875 86.882812 C 78.511719 90.585938 78.777344 94.503906 78.988281 97.652344 L 79.878906 110.828125 L 27.28125 76.351562 L 160.195312 20.992188 L 299.34375 86.105469 C 293.417969 88.777344 287.578125 91.421875 281.828125 94.027344 C 269.578125 99.574219 256.921875 105.296875 243.882812 111.089844 L 243.585938 90.304688 C 243.523438 86.066406 243.441406 80.261719 240.191406 75.652344 C 237.039062 71.175781 231.988281 69.175781 227.5 67.65625 C 184.238281 52.984375 135.59375 55.441406 94.035156 74.402344 C 88.351562 76.996094 82.222656 80.503906 79.875 86.882812 Z M 161.789062 96.179688 C 188.238281 95.773438 214.914062 103.65625 236.917969 118.335938 L 237.140625 133.960938 C 224.945312 124.523438 211.035156 117.285156 196.308594 112.953125 C 167.898438 104.59375 136.1875 106.9375 109.308594 119.382812 C 101.722656 122.894531 94.71875 127.132812 88.398438 131.949219 L 87.613281 120.386719 C 109.121094 105.171875 135.445312 96.574219 161.789062 96.179688 Z M 87.296875 115.714844 L 86.042969 97.175781 C 85.855469 94.441406 85.664062 91.613281 86.503906 89.328125 C 87.953125 85.394531 92.390625 82.917969 96.96875 80.832031 C 136.90625 62.613281 183.65625 60.25 225.230469 74.351562 C 228.660156 75.515625 232.484375 76.988281 234.410156 79.722656 C 236.253906 82.335938 236.453125 86.109375 236.515625 90.410156 L 236.847656 113.496094 C 214.625 99.332031 188.078125 91.753906 161.726562 92.140625 C 135.390625 92.535156 109.082031 100.902344 87.296875 115.714844 Z M 67.359375 167.613281 C 75.957031 150.078125 91.910156 135.226562 112.277344 125.796875 C 127.613281 118.695312 144.617188 115.082031 161.589844 115.082031 C 172.667969 115.082031 183.734375 116.621094 194.3125 119.734375 C 221.105469 127.617188 245.046875 145.667969 259.996094 169.253906 C 265.351562 177.699219 268.503906 185.292969 269.644531 192.464844 C 271.007812 201.070312 269.335938 209.433594 265.054688 215.410156 C 260.425781 221.878906 252.34375 225.417969 245.390625 224.003906 C 239.917969 222.898438 234.644531 218.984375 229.261719 212.039062 C 217.964844 197.46875 211.980469 179.289062 212.402344 160.851562 C 212.4375 159.382812 211.558594 158.046875 210.195312 157.496094 C 208.832031 156.941406 207.269531 157.292969 206.273438 158.371094 C 195.375 170.160156 181.75 177.113281 168.890625 177.449219 C 154.21875 177.855469 140.441406 168.753906 136.863281 156.335938 C 136.398438 154.722656 134.863281 153.660156 133.183594 153.792969 C 131.507812 153.925781 130.160156 155.226562 129.957031 156.894531 C 126.902344 182.339844 114.109375 206.632812 94.863281 223.554688 C 89.859375 227.949219 82.234375 233.730469 73.820312 233.089844 C 66.515625 232.539062 64.460938 225.164062 62.359375 214.808594 C 62.136719 213.71875 61.921875 212.660156 61.699219 211.648438 C 58.558594 197.402344 60.621094 181.347656 67.359375 167.613281 Z M 82.042969 267.027344 C 81.535156 266.128906 80.660156 265.496094 79.648438 265.296875 C 78.640625 265.09375 77.589844 265.347656 76.777344 265.984375 C 71.351562 270.257812 62.898438 270.628906 57.113281 266.851562 C 51.332031 263.078125 48.273438 255.1875 50 248.5 C 51.613281 242.257812 57.382812 237.121094 63.746094 236.054688 C 66.121094 238.296875 69.207031 239.832031 73.289062 240.140625 C 73.914062 240.1875 74.527344 240.210938 75.136719 240.210938 C 85.386719 240.210938 93.90625 233.8125 99.53125 228.867188 C 117.347656 213.203125 129.980469 191.613281 135.144531 168.441406 C 142.503906 178.386719 155.472656 184.863281 169.078125 184.515625 C 181.730469 184.1875 194.445312 178.722656 205.539062 168.964844 C 206.78125 186.125 213.082031 202.707031 223.675781 216.375 C 230.136719 224.710938 236.78125 229.476562 243.988281 230.9375 C 252.171875 232.589844 261.082031 229.609375 267.457031 223.398438 C 276.078125 228.277344 280.175781 240.183594 276.21875 249.292969 C 272.171875 258.609375 260.238281 263.789062 250.667969 260.375 C 248.972656 259.773438 247.09375 260.535156 246.304688 262.152344 C 231.578125 292.277344 199.164062 313.183594 165.644531 314.179688 C 132.128906 315.164062 98.53125 296.222656 82.042969 267.027344 Z M 113.933594 317.035156 C 126.011719 357.367188 141.546875 396.824219 160.207031 434.574219 L 110.449219 409.773438 C 107.582031 408.34375 104.265625 406.402344 104.074219 404.054688 C 103.964844 402.683594 104.886719 401.011719 106.015625 399.125 L 119.035156 377.332031 C 119.628906 376.335938 119.699219 375.113281 119.21875 374.058594 C 118.742188 373 117.773438 372.25 116.632812 372.042969 C 109.671875 370.773438 102.351562 371.035156 95.441406 372.746094 Z M 162.269531 502.835938 L 55.300781 504.59375 C 55.324219 504.433594 55.347656 504.277344 55.347656 504.109375 L 55.449219 431.78125 C 55.449219 429.828125 53.871094 428.242188 51.917969 428.242188 L 51.914062 428.242188 C 49.960938 428.242188 48.378906 429.820312 48.378906 431.769531 L 48.28125 504.097656 C 48.28125 504.308594 48.304688 504.511719 48.339844 504.707031 L 36.296875 504.90625 C 27.386719 505.0625 18.234375 504.734375 12.886719 499.214844 C 7.8125 493.976562 7.484375 485.253906 7.582031 476.773438 L 8.1875 423.347656 C 8.304688 413.097656 8.4375 401.476562 13.554688 392.183594 C 18.226562 383.707031 26.882812 377.570312 34.523438 372.152344 C 48.699219 362.097656 61.855469 351.367188 74.582031 340.984375 C 85.015625 332.476562 95.75 323.734375 107.039062 315.363281 L 86.53125 377.152344 C 86.09375 378.464844 86.460938 379.90625 87.472656 380.847656 C 88.484375 381.792969 89.949219 382.0625 91.226562 381.535156 C 97.164062 379.097656 103.738281 378.027344 110.171875 378.382812 L 99.949219 395.5 C 98.664062 397.648438 96.726562 400.890625 97.03125 404.628906 C 97.566406 411.253906 104.386719 414.652344 107.296875 416.101562 L 162.675781 443.707031 Z M 156.453125 412.179688 C 156.121094 411.355469 155.8125 410.527344 155.519531 409.6875 C 155.085938 408.429688 154.695312 407.140625 154.660156 405.8125 C 154.601562 403.433594 155.703125 401.464844 156.644531 399.371094 C 157.449219 397.585938 158.339844 395.828125 159.207031 394.050781 C 159.753906 392.929688 163.574219 383.933594 163.917969 383.921875 C 163.917969 383.921875 167.402344 383.769531 167.402344 383.769531 C 167.476562 383.867188 167.550781 383.964844 167.640625 384.054688 C 169.226562 385.683594 170.8125 387.308594 172.398438 388.9375 C 173.648438 390.222656 174.902344 391.503906 176.15625 392.789062 C 177.113281 393.773438 179.191406 395.214844 179.339844 396.601562 C 179.421875 397.371094 179.167969 398.136719 178.921875 398.871094 C 177.019531 404.472656 174.867188 409.941406 173.113281 415.5625 C 171.273438 421.46875 169.328125 427.339844 167.417969 433.222656 C 167.804688 432.039062 164.246094 426.765625 163.640625 425.515625 C 162.390625 422.894531 160.636719 420.585938 159.238281 418.046875 C 158.191406 416.148438 157.261719 414.1875 156.453125 412.179688 Z M 323.878906 437.191406 L 321.171875 485 C 320.898438 489.84375 320.472656 494.074219 318.042969 496.753906 C 315.058594 500.050781 309.476562 500.414062 304.011719 500.503906 L 273.835938 501 L 276.238281 433.386719 C 276.304688 431.4375 274.78125 429.800781 272.832031 429.730469 C 270.886719 429.675781 269.242188 431.1875 269.171875 433.136719 L 266.757812 501.117188 L 169.339844 502.71875 L 169.722656 447.558594 C 169.773438 447.53125 169.824219 447.507812 169.875 447.476562 L 208.359375 422.886719 C 213.421875 419.65625 218.125 416.285156 220.019531 410.664062 C 221.875 405.160156 220.269531 398.496094 215.824219 393.273438 C 213.660156 390.730469 211.070312 388.703125 208.421875 386.953125 L 237.902344 372.351562 C 239.546875 371.535156 240.292969 369.597656 239.621094 367.890625 L 220.207031 318.535156 L 293.773438 373.65625 C 303.785156 381.15625 315.128906 389.65625 320.40625 401.582031 C 325.273438 412.578125 324.53125 425.65625 323.878906 437.191406 Z M 323.878906 437.191406 " style=" stroke:none;fill-rule:nonzero;fill:rgb(0%,0%,0%);fill-opacity:1;" />
<path d="M 68.078125 246.40625 C 63.945312 244.957031 59.007812 246.425781 56.347656 249.90625 C 55.667969 250.792969 55.835938 252.058594 56.722656 252.738281 C 57.609375 253.417969 58.875 253.25 59.554688 252.363281 C 61.160156 250.265625 64.25 249.34375 66.738281 250.21875 C 68.246094 250.746094 69.511719 251.921875 70.265625 253.355469 C 69.523438 253.316406 68.765625 253.375 68.003906 253.546875 C 65.71875 254.066406 63.855469 255.476562 62.898438 257.414062 C 62.402344 258.414062 62.8125 259.625 63.8125 260.121094 C 64.101562 260.261719 64.40625 260.328125 64.707031 260.328125 C 65.449219 260.328125 66.167969 259.917969 66.519531 259.203125 C 66.929688 258.375 67.816406 257.734375 68.894531 257.488281 C 69.972656 257.242188 71.050781 257.441406 71.78125 258.011719 C 72.382812 258.488281 73.199219 258.578125 73.890625 258.253906 C 74.582031 257.925781 75.03125 257.234375 75.046875 256.46875 C 75.144531 252.089844 72.210938 247.859375 68.078125 246.40625 Z M 68.078125 246.40625 " style=" stroke:none;fill-rule:nonzero;fill:rgb(0%,0%,0%);fill-opacity:1;" />
<path d="M 252.628906 253.273438 C 252.78125 253.304688 252.929688 253.324219 253.082031 253.324219 C 253.734375 253.324219 254.355469 253.007812 254.738281 252.460938 C 257.398438 248.660156 262.109375 246.421875 266.742188 246.761719 C 267.859375 246.832031 268.820312 246.003906 268.902344 244.890625 C 268.984375 243.78125 268.148438 242.8125 267.035156 242.730469 C 262.714844 242.421875 258.328125 243.828125 254.921875 246.484375 C 255.175781 243.871094 256.070312 241.570312 257.539062 239.859375 C 259.722656 237.316406 264.042969 235.957031 266.992188 237.996094 C 267.90625 238.625 269.164062 238.398438 269.800781 237.480469 C 270.433594 236.566406 270.203125 235.304688 269.285156 234.671875 C 264.917969 231.652344 258.273438 232.800781 254.472656 237.226562 C 251.433594 240.773438 250.199219 246.015625 251.085938 251.621094 C 251.21875 252.429688 251.828125 253.085938 252.628906 253.273438 Z M 252.628906 253.273438 " style=" stroke:none;fill-rule:nonzero;fill:rgb(0%,0%,0%);fill-opacity:1;" />
</g>
</svg>