<?xml version="1.0" encoding="iso-8859-1"?>
<!-- Generator: Adobe Illustrator 19.0.0, SVG Export Plug-In . SVG Version: 6.00 Build 0)  -->
<svg version="1.1" id="Capa_1" xmlns="http://www.w3.org/2000/svg" xmlns:xlink="http://www.w3.org/1999/xlink" x="0px" y="0px"
	 viewBox="0 0 512 512" style="enable-background:new 0 0 512 512;" xml:space="preserve">
<g>
	<circle style="fill:#FFB69E;" cx="257.147" cy="100.856" r="42.191"/>
	<path style="fill:#FFB69E;" d="M308.767,156.498c-10.026,0-75.568,0-85.515,0c-9.236-9.645-29.408-31.404-48.609-52.332
		l-12.95-86.809c-1.659-11.12-12.017-18.79-23.138-17.131c-11.12,1.659-18.79,12.018-17.131,23.138l13.869,92.97
		c0.598,4.012,2.383,7.755,5.122,10.746c15.828,17.298,62.597,66.249,62.597,66.249v109.224h107.83v-2.008h27.012
		c11.244,0,20.357-9.114,20.357-20.357v-74.248C358.208,178.678,336.029,156.498,308.767,156.498z M317.494,259.831h-6.654v-62.358
		c3.813,0.935,6.654,4.372,6.654,8.469V259.831z"/>
</g>
<path style="fill:#87AFB9;" d="M308.767,156.498h-32.277c0.001,0.027,0.006,0.053,0.007,0.08
	c0.486,10.837-9.57,20.067-20.067,20.067c-11.25,0-19.579-9.194-20.067-20.067c-0.001-0.027,0-0.053-0.001-0.08h-13.111
	c-6.455-6.742-18.254-19.401-31.327-33.558l-30.174,26.971c18.702,19.799,41.261,43.419,41.261,43.419v109.224h107.83V197.473
	c3.813,0.935,6.654,4.372,6.654,8.469v40.453h40.714v-40.453C358.208,178.678,336.029,156.498,308.767,156.498z"/>
<path style="fill:#5F6E9B;" d="M308.221,485.855c11.105,0.001,20.857-8.091,22.607-19.407l16.901-109.285
	c1.344-8.694-2.41-17.39-9.659-22.375l-39.716-27.304c-10.422-7.167-24.683-4.525-31.85,5.898
	c-7.166,10.424-4.526,24.684,5.898,31.85l27.857,19.152l-14.701,95.062c-1.933,12.501,6.634,24.203,19.135,26.136
	C305.877,485.766,307.057,485.855,308.221,485.855z"/>
<path style="fill:#414B82;" d="M215.703,485.855c-11.105,0.001-20.857-8.091-22.607-19.407l-16.901-109.285
	c-1.344-8.694,2.41-17.39,9.659-22.375l39.716-27.304c10.422-7.167,24.683-4.525,31.85,5.898c7.166,10.424,4.526,24.684-5.898,31.85
	l-27.857,19.152l14.701,95.062c1.933,12.501-6.634,24.203-19.135,26.136C218.046,485.766,216.866,485.855,215.703,485.855z"/>
<g>
	<path style="fill:#783C28;" d="M386.715,512c9.393,0,17.007-7.615,17.007-17.007V322.767c0-9.393-7.614-17.007-17.007-17.007
		c-9.393,0-17.007,7.614-17.007,17.007v172.227C369.708,504.386,377.323,512,386.715,512z"/>
	<path style="fill:#783C28;" d="M139.233,512c9.393,0,17.007-7.615,17.007-17.007V322.767c0-9.393-7.614-17.007-17.007-17.007
		c-9.393,0-17.007,7.614-17.007,17.007v172.227C122.226,504.386,129.841,512,139.233,512z"/>
</g>
<path style="fill:#A55A3C;" d="M420.933,315.674c0,12.96-10.506,23.466-23.466,23.466H114.533c-12.96,0-23.466-10.506-23.466-23.466
	s10.506-23.466,23.466-23.466h282.934C410.427,292.209,420.933,302.715,420.933,315.674z"/>
<path style="fill:#FFB69E;" d="M311.906,292.197v-32.366h-62.601c-11.244,0-20.357,9.114-20.357,20.357
	c0,4.497,1.476,8.64,3.945,12.009H311.906z"/>
<g>
</g>
<g>
</g>
<g>
</g>
<g>
</g>
<g>
</g>
<g>
</g>
<g>
</g>
<g>
</g>
<g>
</g>
<g>
</g>
<g>
</g>
<g>
</g>
<g>
</g>
<g>
</g>
<g>
</g>
</svg>
