<?xml version="1.0" encoding="iso-8859-1"?>
<!-- Generator: Adobe Illustrator 19.0.0, SVG Export Plug-In . SVG Version: 6.00 Build 0)  -->
<svg version="1.1" id="Capa_1" xmlns="http://www.w3.org/2000/svg" xmlns:xlink="http://www.w3.org/1999/xlink" x="0px" y="0px"
	 viewBox="0 0 512 512" style="enable-background:new 0 0 512 512;" xml:space="preserve">
<g>
	<circle style="fill:#FFB69E;" cx="125.465" cy="135.663" r="32.724"/>
	<path style="fill:#FFB69E;" d="M165.501,178.822c-7.776,0-58.613,0-66.328,0c-7.164-7.481-22.81-24.358-37.703-40.591
		l-10.043-67.33c-1.287-8.624-9.321-14.573-17.947-13.288C24.855,58.9,18.905,66.935,20.192,75.56l10.757,72.111
		c0.464,3.112,1.848,6.015,3.973,8.336c12.277,13.417,48.551,51.385,48.551,51.385v84.718h83.636v-1.557h20.951
		c8.721,0,15.79-7.069,15.79-15.79v-57.589C203.85,196.026,186.647,178.822,165.501,178.822z M172.271,258.97h-5.162v-48.368
		c2.957,0.725,5.162,3.391,5.162,6.569V258.97z"/>
</g>
<path style="fill:#87AFB9;" d="M165.501,178.822c0,0-25.031,0.041-25.03,0.062c0.376,8.406-7.423,15.564-15.564,15.564
	c-8.726,0-15.187-7.131-15.564-15.564c-0.001-0.021-10.17-0.062-10.17-0.062c-5.007-5.229-14.158-15.049-24.299-26.029
	L51.47,173.713c14.506,15.357,32.003,33.677,32.003,33.677v84.718h83.636v-81.504c2.957,0.725,5.162,3.391,5.162,6.569v31.377
	h31.579v-31.377C203.85,196.026,186.647,178.822,165.501,178.822z"/>
<path style="fill:#5F6E9B;" d="M165.079,434.282c8.613,0,16.178-6.276,17.535-15.053l13.109-84.765
	c1.043-6.744-1.869-13.489-7.492-17.354l-30.805-21.178c-8.084-5.559-19.145-3.51-24.704,4.575
	c-5.559,8.085-3.51,19.145,4.575,24.704l21.607,14.855L147.501,413.8c-1.499,9.696,5.146,18.772,14.842,20.271
	C163.26,434.213,164.176,434.282,165.079,434.282z"/>
<path style="fill:#414B82;" d="M93.319,434.282c-8.613,0-16.178-6.276-17.535-15.053l-13.109-84.765
	c-1.043-6.744,1.869-13.489,7.492-17.354l30.805-21.178c8.084-5.559,19.145-3.51,24.704,4.575s3.51,19.145-4.575,24.704
	l-21.607,14.855l11.403,73.733c1.499,9.696-5.146,18.772-14.842,20.271C95.136,434.213,94.221,434.282,93.319,434.282z"/>
<g>
	<path style="fill:#783C28;" d="M225.961,454.561c7.286,0,13.191-5.906,13.191-13.191V307.785c0-7.286-5.906-13.191-13.191-13.191
		c-7.286,0-13.191,5.906-13.191,13.191V441.37C212.769,448.655,218.676,454.561,225.961,454.561z"/>
	<path style="fill:#783C28;" d="M34.006,454.561c7.286,0,13.191-5.906,13.191-13.191V307.785c0-7.286-5.906-13.191-13.191-13.191
		s-13.191,5.906-13.191,13.191V441.37C20.815,448.655,26.721,454.561,34.006,454.561z"/>
</g>
<path style="fill:#A55A3C;" d="M255.852,308.654c0,10.051-8.149,18.2-18.2,18.2H18.2c-10.051,0-18.2-8.149-18.2-18.2
	s8.149-18.2,18.2-18.2h219.451C247.704,290.453,255.852,298.602,255.852,308.654z"/>
<path style="fill:#FFB69E;" d="M167.937,258.97h-48.555c-8.721,0-15.79,7.069-15.79,15.79s7.069,15.79,15.79,15.79h48.555V258.97z"
	/>
<rect x="345.396" y="197.548" style="fill:#87AFB9;" width="88.139" height="117.201"/>
<path style="fill:#5F6E9B;" d="M336.948,418.63l-12.919-83.54c-1.028-6.646,1.842-13.294,7.384-17.103l30.36-20.872
	c7.969-5.479,18.868-3.46,24.347,4.509c5.477,7.969,3.46,18.868-4.509,24.347l-21.295,14.64l11.238,72.668
	c1.478,9.556-5.071,18.501-14.627,19.978C347.369,434.735,338.425,428.185,336.948,418.63z"/>
<path style="fill:#414B82;" d="M421.995,433.257c-9.556-1.478-16.104-10.422-14.627-19.978l11.093-71.733l-24.337-14.15
	c-8.36-4.861-11.196-15.577-6.336-23.937c4.861-8.36,15.576-11.196,23.937-6.336l34.664,20.155
	c6.23,3.622,9.604,10.691,8.503,17.812l-12.918,83.54C440.495,428.187,431.549,434.734,421.995,433.257z"/>
<path style="fill:#FFB69E;" d="M478.659,272.024l-20.301-65.546c-4.62-14.917-18.216-24.939-33.833-24.939h-29.732h-10.665h-29.732
	c-15.616,0-29.213,10.022-33.833,24.939l-20.301,65.546c-1.471,4.75-0.598,9.917,2.353,13.92c2.951,4.003,7.629,6.366,12.602,6.366
	h58.247c8.646,0,15.655-7.009,15.655-15.655c0-8.645-7.009-15.654-15.655-15.654h-37.01l14.019-45.26
	c0.535-1.731,2.113-2.893,3.925-2.893h29.732h10.665h29.732c1.811,0,3.389,1.163,3.925,2.893l14.019,45.26h-37.01
	c-8.646,0-15.655,7.009-15.655,15.654c0,8.646,7.009,15.655,15.655,15.655h58.247c4.973,0,9.65-2.363,12.602-6.366
	C479.256,281.941,480.13,276.775,478.659,272.024z"/>
<path style="fill:#87AFB9;" d="M470.549,245.837l-12.19-39.36c-4.62-14.917-18.216-24.939-33.833-24.939h-70.129
	c-15.616,0-29.213,10.022-33.833,24.939l-12.19,39.36l31.086,5.459l5.934-19.159v-0.51h88.136v0.51l5.934,19.158L470.549,245.837z"
	/>
<circle style="fill:#FFB69E;" cx="389.461" cy="166.39" r="32.445"/>
<g>
	<path style="fill:#783C28;" d="M295.841,454.561c-7.164,0-12.972-5.808-12.972-12.972V310.226c0-7.164,5.808-12.972,12.972-12.972
		c7.164,0,12.972,5.808,12.972,12.972V441.59C308.814,448.753,303.005,454.561,295.841,454.561z"/>
	<path style="fill:#783C28;" d="M483.079,454.561c-7.164,0-12.972-5.808-12.972-12.972V310.226c0-7.164,5.808-12.972,12.972-12.972
		c7.164,0,12.972,5.808,12.972,12.972V441.59C496.052,448.753,490.244,454.561,483.079,454.561z"/>
</g>
<path style="fill:#A55A3C;" d="M266.921,310.226c0,9.885,8.013,17.898,17.898,17.898h209.283c9.885,0,17.898-8.013,17.898-17.898
	l0,0c0-9.885-8.013-17.898-17.898-17.898H284.819C274.934,292.329,266.921,300.341,266.921,310.226L266.921,310.226z"/>
<polygon style="fill:#B4D7DC;" points="424.562,270.059 389.461,279.914 389.461,228.176 424.562,218.322 "/>
<polygon style="fill:#E4F2F6;" points="354.359,270.059 389.461,279.914 389.461,228.176 354.359,218.322 "/>
<g>
	<path style="fill:#FFB69E;" d="M389.118,276.655c0-8.645-7.009-15.654-15.655-15.654h-28.07v31.31h28.07
		C382.109,292.311,389.118,285.302,389.118,276.655z"/>
	<path style="fill:#FFB69E;" d="M433.528,261.001h-28.07c-8.646,0-15.655,7.009-15.655,15.654c0,8.646,7.009,15.655,15.655,15.655
		h28.07V261.001z"/>
</g>
<g>
</g>
<g>
</g>
<g>
</g>
<g>
</g>
<g>
</g>
<g>
</g>
<g>
</g>
<g>
</g>
<g>
</g>
<g>
</g>
<g>
</g>
<g>
</g>
<g>
</g>
<g>
</g>
<g>
</g>
</svg>
