<svg id="Layer_1" enable-background="new 0 0 256 256" height="512" viewBox="0 0 256 256" width="512" xmlns="http://www.w3.org/2000/svg"><path d="m194.177 248h-132.413v-63.905c0-6.627 5.373-12 12-12h108.413c6.627 0 12 5.373 12 12z" fill="#4671c6"/><path d="m194.177 250h-132.413c-1.104 0-2-.896-2-2v-63.905c0-7.72 6.28-14 14-14h108.413c7.72 0 14 6.28 14 14v63.905c0 1.104-.895 2-2 2zm-130.413-4h128.413v-61.905c0-5.514-4.486-10-10-10h-108.413c-5.514 0-10 4.486-10 10z" fill="#3762cc"/><path d="m166.507 185.425h-10.423c-.023-.001-.045-.005-.067-.005l-.004.005h-68.567c-18.114 0-32.798 14.684-32.798 32.798v29.777h144.657c0-11.104 0-18.68 0-29.777 0-18.114-14.684-32.798-32.798-32.798z" fill="#e0ebfc"/><path d="m126.984 185.425h-.016v.012z" fill="#a4c9ff"/><path d="m166.507 185.43c-1.845 0-3.366 0-4.619 0l-34.049 54.438c-.402.643-1.339.643-1.741 0l-34.033-54.438h-4.619c-6.978 0-13.443 2.186-18.759 5.901l3.873 25.382v31.287h56.113 56.113v-31.288l3.508-22.993c-5.794-5.154-13.423-8.289-21.787-8.289z" fill="#a4c9ff"/><path d="m126.968 242.35c-1.051 0-2.01-.532-2.566-1.423l-34.036-54.441c-.386-.617-.406-1.394-.054-2.03.353-.636 1.022-1.03 1.75-1.03h34.906.016 34.906c.727 0 1.397.395 1.75 1.03.353.637.332 1.414-.054 2.03l-34.052 54.442c-.556.89-1.515 1.422-2.566 1.422zm.824-3.545.001.002v.001c.001-.001 0-.002-.001-.003zm-32.121-51.38 31.298 50.063 31.312-50.063h-31.189c-.08.004-.16.004-.241 0z" fill="#3762cc"/><path d="m133.834 214.811c-5.119 0-8.562 0-13.716 0l-3.493 9.902 9.473 15.154c.402.643 1.339.643 1.741 0l9.485-15.166z" fill="#6bdddd"/><path d="m126.976 188.333-10.813 18.568 3.955 7.91h13.732l3.948-7.895z" fill="#6bdddd"/><path d="m126.968 242.35c-1.051 0-2.01-.532-2.566-1.423l-9.473-15.152c-.323-.517-.393-1.151-.19-1.726l3.493-9.903c.282-.8 1.038-1.335 1.886-1.335h13.716c.848 0 1.604.535 1.886 1.335l3.489 9.892c.203.574.132 1.209-.19 1.726l-9.484 15.165c-.557.889-1.516 1.421-2.567 1.421zm-8.136-17.879 8.137 13.016 8.148-13.027-2.698-7.648h-10.885z" fill="#3762cc"/><path d="m133.85 216.811h-13.732c-.757 0-1.45-.428-1.789-1.105l-3.955-7.909c-.301-.604-.279-1.318.061-1.901l10.813-18.568c.358-.615 1.017-.993 1.729-.993s1.37.378 1.729.993l10.821 18.583c.339.583.362 1.298.061 1.901l-3.947 7.895c-.341.676-1.034 1.104-1.791 1.104zm-12.496-4h11.26l2.911-5.822-8.549-14.681-8.54 14.666z" fill="#3762cc"/><path d="m94.055 179.113-1.993 6.312 18.906 30.242 16.008-27.333-28.683-11.245c-1.732-.68-3.678.25-4.238 2.024z" fill="#e0ebfc"/><path d="m159.889 179.113 1.993 6.312-18.906 30.242-16.008-27.333 28.683-11.245c1.733-.68 3.678.25 4.238 2.024z" fill="#e0ebfc"/><path d="m110.968 217.666c-.689 0-1.33-.354-1.696-.939l-18.906-30.241c-.311-.497-.388-1.104-.211-1.663l1.993-6.313c.434-1.372 1.427-2.515 2.726-3.135 1.298-.619 2.811-.674 4.15-.148l28.683 11.244c.544.214.968.654 1.16 1.207s.132 1.161-.164 1.666l-16.008 27.333c-.354.604-.997.979-1.697.989-.011 0-.02 0-.03 0zm-16.721-32.519 16.666 26.656 13.155-22.463-26.505-10.39c-.427-.169-.789-.051-.966.034s-.496.292-.634.729z" fill="#3762cc"/><path d="m142.976 217.666c-.01 0-.019 0-.029 0-.7-.011-1.343-.386-1.697-.989l-16.008-27.333c-.296-.505-.355-1.113-.164-1.666s.615-.993 1.16-1.207l28.683-11.244c1.338-.525 2.851-.471 4.149.148 1.298.62 2.292 1.763 2.726 3.135l1.993 6.313c.176.559.099 1.166-.211 1.663l-18.906 30.241c-.366.585-1.007.939-1.696.939zm-13.1-28.325 13.155 22.463 16.666-26.656-1.715-5.433c-.138-.438-.457-.645-.634-.729-.177-.085-.538-.202-.966-.034z" fill="#3762cc"/><path d="m163.466 240.948c-.306-.049-.602-.15-.883-.28l-6.599-3.056c-.693-.321-1.137-1.016-1.137-1.78v-17.575c0-.542.439-.981.981-.981h16.431c.542 0 .981.439.981.981v17.575c0 .764-.444 1.459-1.137 1.78l-6.616 3.064c-.629.291-1.314.384-2.021.272z" fill="#f9cfcf"/><path d="m172.258 217.276h-16.431c-.542 0-.981.439-.981.981v10.878h18.392v-10.878c.001-.542-.438-.981-.98-.981z" fill="#e0ebfc"/><path d="m165.486 240.676 6.616-3.064c.693-.321 1.137-1.016 1.137-1.78v-17.575c0-.542-.439-.981-.981-.981h-8.215v23.715c.502 0 .987-.104 1.443-.315z" fill="#f9a7a7"/><path d="m98.293 177.088 28.679 11.243 28.679-11.243c.162-.063.327-.099.491-.135v-5.202c-8.714 4.536-18.63 7.112-29.158 7.112-10.541 0-20.468-2.583-29.19-7.129v5.217c.167.036.334.073.499.137z" fill="#f9cfcf"/><path d="m126.972 190.332c-.248 0-.496-.046-.73-.138l-28.673-11.242c-.065-.021-.131-.031-.196-.046-.92-.199-1.579-1.014-1.579-1.955v-5.217c0-.699.365-1.348.963-1.71.598-.364 1.342-.387 1.961-.063 8.664 4.516 18.438 6.902 28.266 6.902 9.816 0 19.58-2.381 28.235-6.887.621-.321 1.363-.299 1.961.064.598.362.962 1.011.962 1.71v5.202c0 .939-.654 1.752-1.571 1.953-.068.016-.137.026-.205.05l-28.665 11.238c-.233.093-.481.139-.729.139zm-27.178-14.804 27.178 10.655 27.17-10.652v-.578c-8.47 3.874-17.792 5.91-27.158 5.91-9.377 0-18.711-2.041-27.19-5.925z" fill="#3762cc"/><path d="m199.305 250h-144.657c-1.104 0-2-.896-2-2v-29.777c0-19.188 15.61-34.798 34.798-34.798h4.616c.689 0 1.331.355 1.696.939l17.155 27.439 14.334-24.475c.358-.612 1.016-.989 1.726-.989s1.367.377 1.726.989l14.334 24.475 17.155-27.439c.365-.584 1.006-.939 1.696-.939h4.625c19.188 0 34.798 15.61 34.798 34.798v29.777c-.002 1.104-.898 2-2.002 2zm-142.657-4h140.657v-27.777c0-16.982-13.816-30.798-30.798-30.798h-3.516l-18.319 29.302c-.371.594-1.003.985-1.725.939-.7-.011-1.343-.386-1.697-.989l-14.278-24.38-14.278 24.38c-.354.604-.997.979-1.697.989-.743.029-1.354-.347-1.725-.939l-18.319-29.302h-3.508c-16.982 0-30.798 13.815-30.798 30.798v27.777z" fill="#3762cc"/><path d="m186.798 248v-61.588c0-1.701-1.379-3.079-3.079-3.079h-11.291c-1.701 0-3.079 1.379-3.079 3.079v61.588z" fill="#4671c6"/><path d="m186.798 250h-17.45c-1.104 0-2-.896-2-2v-61.588c0-2.801 2.278-5.079 5.079-5.079h11.291c2.801 0 5.08 2.278 5.08 5.079v61.588c0 1.104-.895 2-2 2zm-15.449-4h13.45v-59.588c0-.595-.484-1.079-1.08-1.079h-11.291c-.595 0-1.079.484-1.079 1.079z" fill="#3762cc"/><path d="m84.584 248v-61.588c0-1.701-1.379-3.079-3.079-3.079h-11.292c-1.701 0-3.079 1.379-3.079 3.079v61.588z" fill="#4671c6"/><path d="m84.583 250h-17.45c-1.104 0-2-.896-2-2v-61.588c0-2.801 2.279-5.079 5.08-5.079h11.291c2.801 0 5.079 2.278 5.079 5.079v61.588c0 1.104-.895 2-2 2zm-15.449-4h13.45v-59.588c0-.595-.484-1.079-1.079-1.079h-11.292c-.595 0-1.08.484-1.08 1.079v59.588z" fill="#3762cc"/><path d="m190.223 92.886c-.134 0-.264.017-.397.02v-.916c-7.378-1.385-14.039-4.799-19.381-9.643-.726-.659-1.874.05-1.629.999 1.475 5.698 3.487 8.817 5.052 10.491.614.656.08 1.733-.817 1.681-26.457-1.547-38.855-10.547-44.667-18.645-.394-.549-1.208-.549-1.602 0-5.812 8.098-18.21 17.098-44.667 18.645-.897.052-1.431-1.024-.817-1.681 1.565-1.673 3.577-4.793 5.052-10.491.246-.949-.902-1.658-1.629-.999-5.633 5.109-12.734 8.621-20.595 9.846v.713c-.133-.003-.263-.02-.397-.02-10.59 0-19.175 8.507-19.175 19.002s8.585 19.002 19.175 19.002c.696 0 1.381-.041 2.057-.113 6.486 27.554 31.41 48.086 61.19 48.086s54.704-20.532 61.19-48.086c.676.072 1.362.113 2.057.113 10.59 0 19.175-8.507 19.175-19.002s-8.585-19.002-19.175-19.002z" fill="#f9cfcf"/><g fill="#3762cc"><path d="m126.989 151.332c-4.271 0-8.24-1.532-10.891-4.205-1.991-2.007-3.088-4.533-3.088-7.114 0-1.104.896-2 2-2s2 .896 2 2c0 1.54.667 3.026 1.928 4.297 1.905 1.921 4.839 3.022 8.051 3.022 3.185 0 6.104-1.102 8.009-3.021 1.261-1.271 1.928-2.758 1.928-4.298 0-1.104.896-2 2-2s2 .896 2 2c0 2.58-1.097 5.107-3.088 7.114-2.65 2.673-6.605 4.205-10.849 4.205z"/><path d="m168.233 103.281h-5.067c-1.35-1.237-3.143-2-5.114-2-4.184 0-7.588 3.403-7.588 7.587v12.645c0 4.184 3.404 7.586 7.588 7.586 4.183 0 7.586-3.403 7.586-7.586v-12.645c0-.544-.06-1.075-.17-1.587h2.765c1.104 0 2-.896 2-2s-.895-2-2-2z"/><path d="m95.886 101.282c-1.972 0-3.765.762-5.115 2h-5.088c-1.104 0-2 .896-2 2s.896 2 2 2h2.785c-.11.512-.17 1.043-.17 1.587v12.645c0 4.184 3.404 7.586 7.588 7.586 4.183 0 7.586-3.403 7.586-7.586v-12.645c0-4.184-3.403-7.587-7.586-7.587z"/></g><path d="m138.3 8h-3.141c-2.904 0-5.427 1.634-6.698 4.033-.376.709-1.38.709-1.756 0-1.271-2.399-3.794-4.033-6.698-4.033h-3.141c-36.951 0-66.907 29.955-66.907 66.907v16.772c0 .552.448 1 1 1h6.983c10.309 0 19.7-3.912 26.778-10.331.726-.659 1.874.05 1.629.999-1.475 5.697-3.487 8.817-5.052 10.491-.614.656-.08 1.733.817 1.68 26.457-1.547 38.855-10.547 44.667-18.645.394-.549 1.208-.549 1.602 0 5.812 8.098 18.21 17.098 44.667 18.645.897.052 1.431-1.024.817-1.68-1.565-1.674-3.577-4.793-5.052-10.491-.246-.949.902-1.658 1.629-.999 7.078 6.419 16.469 10.331 26.778 10.331h6.983c.552 0 1-.448 1-1v-16.772c.001-36.952-29.954-66.907-66.905-66.907z" fill="#4671c6"/><path d="m82.051 97.52c-1.167 0-2.226-.669-2.729-1.742-.523-1.115-.321-2.412.515-3.307 1.029-1.101 2.394-3.063 3.608-6.454-7.292 5.607-16.226 8.662-25.502 8.662h-6.983c-1.654 0-3-1.346-3-3v-16.773c-.001-37.995 30.911-68.906 68.906-68.906h3.141c3.001 0 5.781 1.392 7.576 3.716 1.795-2.324 4.575-3.716 7.576-3.716h3.141c37.995 0 68.907 30.911 68.907 68.906v16.772c0 1.654-1.346 3-3 3h-6.983c-9.276 0-18.209-3.055-25.502-8.661 1.215 3.392 2.579 5.353 3.608 6.453.836.895 1.038 2.191.515 3.307-.529 1.127-1.685 1.825-2.91 1.736-26.518-1.55-39.262-10.608-45.351-18.377-6.09 7.769-18.834 16.827-45.352 18.378-.061.004-.121.006-.181.006zm3.322-17.429c.533 0 1.069.144 1.555.438 1.146.692 1.692 2.026 1.358 3.319-1.013 3.911-2.372 7.102-4.055 9.522 24.642-1.899 35.851-10.593 40.926-17.663.56-.78 1.467-1.246 2.426-1.246s1.866.466 2.426 1.246c5.075 7.07 16.283 15.764 40.926 17.663-1.683-2.42-3.042-5.611-4.055-9.522-.335-1.292.211-2.626 1.357-3.319 1.14-.691 2.567-.556 3.55.337 6.979 6.328 16.011 9.813 25.435 9.813h5.983v-15.773c.002-35.789-29.116-64.906-64.905-64.906h-3.141c-2.071 0-3.96 1.138-4.931 2.97-.522.984-1.535 1.596-2.645 1.596s-2.123-.611-2.645-1.596c-.971-1.832-2.86-2.97-4.931-2.97h-3.141c-35.79 0-64.907 29.117-64.907 64.906v15.772h5.983c9.424 0 18.457-3.485 25.434-9.813.566-.511 1.278-.774 1.997-.774z" fill="#3762cc"/><path d="m209.254 109.65c.087.735.144 1.479.144 2.238 0 10.495-8.585 19.002-19.175 19.002-.696 0-1.381-.041-2.057-.113-2.147 9.121-6.324 17.464-12.018 24.555 3.536 18.283 19.62 32.093 38.936 32.093h14.499c1.105 0 2-.895 2-2v-40.092c0-15.689-9.111-29.249-22.329-35.683z" fill="#4671c6"/><path d="m229.583 189.425h-14.499c-19.921 0-37.122-14.179-40.899-33.713-.112-.577.036-1.174.404-1.632 5.668-7.059 9.582-15.053 11.631-23.761.231-.98 1.159-1.624 2.156-1.531.646.068 1.251.102 1.848.102 9.47 0 17.174-7.627 17.174-17.002 0-.608-.042-1.263-.13-2.001-.086-.727.23-1.442.827-1.866s1.377-.489 2.035-.168c14.467 7.041 23.454 21.403 23.454 37.48v40.092c-.001 2.206-1.795 4-4.001 4zm-51.288-33.583c3.756 17.197 19.084 29.583 36.789 29.583h14.499v-40.092c0-13.394-6.9-25.471-18.218-32.266-.628 11.204-10.147 20.136-21.664 19.815-2.186 8.263-6.103 16.15-11.406 22.96z" fill="#3762cc"/><path d="m65.786 130.777c-.676.072-1.362.113-2.057.113-10.59 0-19.175-8.507-19.175-19.002 0-.374.035-.74.057-1.108-12.052 6.806-20.194 19.726-20.194 34.554v40.092c0 1.105.895 2 2 2h14.499c18.627 0 34.248-12.843 38.51-30.154-6.526-7.491-11.294-16.529-13.64-26.495z" fill="#4671c6"/><path d="m40.916 189.425h-14.499c-2.206 0-4-1.794-4-4v-40.092c0-14.999 8.127-28.906 21.21-36.295.637-.36 1.42-.343 2.042.044s.981 1.083.938 1.813l-.021.325c-.015.221-.032.442-.032.667 0 9.375 7.705 17.002 17.174 17.002.597 0 1.201-.033 1.848-.102 1.006-.095 1.925.551 2.156 1.531 2.213 9.402 6.778 18.268 13.202 25.637.428.491.59 1.16.434 1.793-4.591 18.651-21.226 31.677-40.452 31.677zm1.782-75.09c-10.121 6.995-16.281 18.583-16.281 30.998v40.092h14.499c17.04 0 31.828-11.316 36.312-27.646-6.118-7.258-10.576-15.814-12.977-24.896-.174.005-.348.007-.522.007-10.841 0-19.806-8.123-21.031-18.555z" fill="#3762cc"/><path d="m126.976 180.863c-29.723 0-55.275-19.645-62.727-47.98-.174.005-.347.007-.521.007-11.676 0-21.174-9.422-21.174-21.002 0-11.201 8.886-20.382 20.033-20.972.303-.364.733-.621 1.231-.699 7.305-1.138 14.068-4.371 19.559-9.351.983-.893 2.411-1.027 3.55-.339 1.147.693 1.693 2.027 1.358 3.319-1.012 3.912-2.372 7.104-4.054 9.523 24.642-1.899 35.851-10.593 40.925-17.663.559-.779 1.466-1.246 2.425-1.246h.001c.959 0 1.866.466 2.426 1.246 5.075 7.07 16.283 15.764 40.925 17.663-1.682-2.42-3.042-5.611-4.054-9.523-.335-1.291.21-2.625 1.358-3.318 1.14-.691 2.568-.555 3.551.339 5.189 4.704 11.554 7.871 18.406 9.157.563.105 1.035.442 1.323.9 11.075.665 19.879 9.813 19.879 20.963 0 11.58-9.499 21.002-21.174 21.002-.173 0-.347-.002-.521-.007-7.45 28.337-33.002 47.981-62.725 47.981zm-61.188-52.086c.918 0 1.731.631 1.945 1.542 6.451 27.404 30.813 46.544 59.243 46.544 28.431 0 52.793-19.14 59.243-46.544.231-.98 1.159-1.624 2.156-1.531.646.068 1.251.102 1.848.102 9.47 0 17.174-7.627 17.174-17.002 0-9.373-7.701-16.998-17.167-17.002-.173.012-.266.018-.36.021-.541-.015-1.058-.193-1.442-.57-.201-.196-.356-.432-.459-.688-5.905-1.333-11.444-3.938-16.248-7.631 1.215 3.393 2.579 5.353 3.608 6.453.836.895 1.038 2.191.515 3.307-.529 1.127-1.685 1.825-2.91 1.736-26.518-1.55-39.262-10.608-45.351-18.377-6.091 7.769-18.836 16.827-45.352 18.378-1.236.053-2.381-.609-2.91-1.737-.523-1.115-.321-2.412.516-3.307 1.029-1.101 2.392-3.061 3.607-6.452-5.171 3.979-11.176 6.68-17.597 7.906-.088.149-.196.288-.323.411-.385.376-.913.555-1.442.57-.095-.003-.188-.009-.281-.016-.003 0-.007 0-.01 0-9.538 0-17.237 7.625-17.237 16.997 0 9.375 7.705 17.002 17.174 17.002.597 0 1.201-.033 1.848-.102.071-.006.142-.01.212-.01z" fill="#3762cc"/></svg>